<svg width="96" height="96" xmlns="http://www.w3.org/2000/svg" xmlns:xlink="http://www.w3.org/1999/xlink" overflow="hidden"><defs><clipPath id="clip0"><rect x="0" y="0" width="96" height="96"/></clipPath></defs><g clip-path="url(#clip0)"><path d="M76 74C76 75.1 75.1 76 74 76 72.9 76 72 75.1 72 74L72 26 76 26 76 74ZM22 76C20.9 76 20 75.1 20 74L20 20 66 20 66 74C66 74.7 66.1 75.4 66.3 76L22 76ZM72 20 72 14 14 14 14 74C14 78.4 17.6 82 22 82L74 82C78.4 82 82 78.4 82 74L82 20 72 20Z"/><path d="M24 26 62 26 62 30 24 30Z"/><path d="M45 34 62 34 62 38 45 38Z"/><path d="M45 42 62 42 62 46 45 46Z"/><path d="M24 34 41 34 41 46 24 46Z"/><path d="M24 50 62 50 62 54 24 54Z"/><path d="M45 58 62 58 62 70 45 70Z"/><path d="M24 58 41 58 41 62 24 62Z"/><path d="M24 66 41 66 41 70 24 70Z"/></g></svg>